<svg width="24" height="24" viewBox="0 0 24 24" fill="none" xmlns="http://www.w3.org/2000/svg">
<path fill-rule="evenodd" clip-rule="evenodd" d="M5.10039 6.60078C4.8617 6.60078 4.63278 6.6956 4.46399 6.86439C4.29521 7.03317 4.20039 7.26209 4.20039 7.50078V17.7008C4.20039 18.1976 4.60359 18.6008 5.10039 18.6008H15.3004C15.5391 18.6008 15.768 18.506 15.9368 18.3372C16.1056 18.1684 16.2004 17.9395 16.2004 17.7008V12.9008C16.2004 12.6621 16.2952 12.4332 16.464 12.2644C16.6328 12.0956 16.8617 12.0008 17.1004 12.0008C17.3391 12.0008 17.568 12.0956 17.7368 12.2644C17.9056 12.4332 18.0004 12.6621 18.0004 12.9008V17.7008C18.0004 18.4169 17.7159 19.1036 17.2096 19.61C16.7032 20.1163 16.0165 20.4008 15.3004 20.4008H5.10039C4.38431 20.4008 3.69755 20.1163 3.1912 19.61C2.68485 19.1036 2.40039 18.4169 2.40039 17.7008V7.50078C2.40039 6.7847 2.68485 6.09794 3.1912 5.59159C3.69755 5.08524 4.38431 4.80078 5.10039 4.80078H11.1004C11.3391 4.80078 11.568 4.8956 11.7368 5.06439C11.9056 5.23317 12.0004 5.46209 12.0004 5.70078C12.0004 5.93948 11.9056 6.16839 11.7368 6.33718C11.568 6.50596 11.3391 6.60078 11.1004 6.60078H5.10039Z" fill="#475467"/>
<path fill-rule="evenodd" clip-rule="evenodd" d="M7.43319 15.304C7.51249 15.3918 7.60832 15.463 7.71519 15.5137C7.82206 15.5644 7.93787 15.5936 8.05601 15.5995C8.17414 15.6054 8.29229 15.5879 8.40368 15.5481C8.51507 15.5084 8.61753 15.447 8.70519 15.3676L19.8004 5.32839V8.70039C19.8004 8.93909 19.8952 9.168 20.064 9.33679C20.2328 9.50557 20.4617 9.60039 20.7004 9.60039C20.9391 9.60039 21.168 9.50557 21.3368 9.33679C21.5056 9.168 21.6004 8.93909 21.6004 8.70039V3.30039C21.6004 3.0617 21.5056 2.83278 21.3368 2.66399C21.168 2.49521 20.9391 2.40039 20.7004 2.40039H15.3004C15.0617 2.40039 14.8328 2.49521 14.664 2.66399C14.4952 2.83278 14.4004 3.0617 14.4004 3.30039C14.4004 3.53909 14.4952 3.768 14.664 3.93679C14.8328 4.10557 15.0617 4.20039 15.3004 4.20039H18.364L7.49679 14.0332C7.40903 14.1125 7.33776 14.2083 7.28706 14.3152C7.23636 14.4221 7.20723 14.5379 7.20132 14.656C7.19541 14.7741 7.21285 14.8923 7.25264 15.0037C7.29242 15.1151 7.35378 15.2163 7.43319 15.304Z" fill="#475467"/>
</svg>
